<?xml version="1.0" encoding="UTF-8" standalone="no"?>
<!-- Created with Inkscape (http://www.inkscape.org/) -->

<svg
   xmlns:dc="http://purl.org/dc/elements/1.1/"
   xmlns:cc="http://creativecommons.org/ns#"
   xmlns:rdf="http://www.w3.org/1999/02/22-rdf-syntax-ns#"
   xmlns:svg="http://www.w3.org/2000/svg"
   xmlns="http://www.w3.org/2000/svg"
   version="1.1"
   width="892.91339"
   height="198.07086"
   id="svg3759">
  <defs
     id="defs3761" />
  <metadata
     id="metadata3764">
    <rdf:RDF>
      <cc:Work
         rdf:about="">
        <dc:format>image/svg+xml</dc:format>
        <dc:type
           rdf:resource="http://purl.org/dc/dcmitype/StillImage" />
        <dc:title></dc:title>
      </cc:Work>
    </rdf:RDF>
  </metadata>
  <g
     transform="translate(65.692859,-426.96039)"
     id="layer1">
    <g
       transform="matrix(6.2258361,0,0,6.2258361,-1696.8336,-2065.6835)"
       id="g3800">
      <g
         transform="matrix(1.25,0,0,-1.25,327.76446,407.62187)"
         id="g3067">
        <path
           d="m 0,0 c 0,0 -0.077,-7.509 0.006,-14.975 l -4.812,0.012 C -4.694,-7.517 -4.796,0 -4.796,0 c 0,0 2.375,-0.029 4.796,0"
           id="path3069"
           style="fill:#004ea2;fill-opacity:1;fill-rule:nonzero;stroke:none" />
      </g>
      <g
         transform="matrix(1.25,0,0,-1.25,381.21708,407.62187)"
         id="g3071">
        <path
           d="m 0,0 c 0,0 -0.078,-7.509 0.005,-14.975 l -4.812,0.012 C -4.696,-7.517 -4.799,0 -4.799,0 c 0,0 2.377,-0.029 4.799,0"
           id="path3073"
           style="fill:#004ea2;fill-opacity:1;fill-rule:nonzero;stroke:none" />
      </g>
      <g
         transform="matrix(1.25,0,0,-1.25,371.39696,426.34062)"
         id="g3075">
        <path
           d="m 0,0 c 0,0 -2.494,0.058 -4.79,0.012 l 0.04,6.414 c -2.884,0.065 -6.291,0 -6.291,0 L -11.012,0 c -1.563,0.058 -4.81,0.012 -4.81,0.012 0.169,7.781 0.043,14.974 0.043,14.974 0,0 2.404,-0.048 4.771,-0.011 L -11.049,8.97 c 0,0 3.222,-0.085 6.302,0.003 l -0.041,6.002 c 0,0 2.563,-0.061 4.793,0 C 0.005,14.975 -0.069,7.81 0,0"
           id="path3077"
           style="fill:#004ea2;fill-opacity:1;fill-rule:nonzero;stroke:none" />
      </g>
      <g
         transform="matrix(1.25,0,0,-1.25,383.55071,426.32312)"
         id="g3079">
        <path
           d="m 0,0 c 0,0 1.056,0.042 2.729,-0.012 l 2.671,7.84 1.277,4.216 0.079,0.911 0.088,-0.911 C 6.863,11.867 7.601,9.186 8.041,7.781 l 2.65,-7.784 c 0,0 3.545,0.074 6.346,0.014 0,0 -1.915,5.045 -4.642,13.044 -0.373,1.092 -1.312,1.953 -2.636,1.963 l -2.102,0.023 c -1.325,0 -2.394,-0.41 -3.078,-1.974 L 0,0"
           id="path3081"
           style="fill:#004ea2;fill-opacity:1;fill-rule:nonzero;stroke:none" />
      </g>
      <g
         transform="matrix(1.25,0,0,-1.25,313.76708,420.21937)"
         id="g3083">
        <path
           d="M 0,0 0.929,-2.074 1.144,-2.707 1.03,-2.074 0.839,0.809 0.834,10.089 c 0,0 0.361,-0.083 2.557,-0.009 0,0 -0.04,-6.387 -0.04,-12.87 0,-1.26 -0.945,-2.193 -2.282,-2.193 l -2.056,0 c -1.509,0 -2.608,1.053 -3.341,2.451 l -4.295,7.701 -0.928,2.074 -0.216,0.635 0.116,-0.635 0.19,-2.883 0.003,-9.278 c 0,0 -0.358,0.081 -2.554,0.005 0,0 0.04,6.39 0.04,12.872 0,1.257 0.944,2.196 2.282,2.196 l 2.055,0 c 1.509,0 2.61,-1.055 3.342,-2.452 L 0,0"
           id="path3085"
           style="fill:#004ea2;fill-opacity:1;fill-rule:nonzero;stroke:none" />
      </g>
      <g
         transform="matrix(1.25,0,0,-1.25,330.33083,417.02812)"
         id="g3087">
        <path
           d="m 0,0 c 0,-5.674 4.758,-7.514 8.875,-7.514 0,0 3.048,-0.041 5.729,0.064 l 0,2.142 c -4.384,-0.179 -5.017,0.099 -5.017,0.099 -1.952,0.35 -4.471,1.792 -4.471,5.246 0,3.453 2.519,4.897 4.471,5.245 0,0 0.655,0.27 5.017,0.099 l 0,2.144 C 11.916,7.652 8.875,7.593 8.875,7.593 4.756,7.593 0,5.868 0,0.062 L 0,0"
           id="path3089"
           style="fill:#004ea2;fill-opacity:1;fill-rule:nonzero;stroke:none" />
      </g>
      <g
         transform="matrix(1.25,0,0,-1.25,268.75083,421.62687)"
         id="g3091">
        <path
           d="m 0,0 8.64,13.75 2.25,-7.367 -0.027,-0.091 4.92,4.498 -0.03,-0.002 c -1.762,1.92 -4.291,3.124 -7.102,3.124 -5.318,0 -9.629,-4.312 -9.629,-9.627 0,-1.524 0.353,-2.963 0.982,-4.242 L 0,0 z m 1.562,-2.234 c 1.758,-1.913 4.284,-3.112 7.089,-3.112 5.317,0 9.629,4.311 9.629,9.631 0,1.521 -0.352,2.96 -0.982,4.241 L 17.3,8.584 8.655,-5.195 6.429,2.191 6.497,2.319 1.511,-2.226 1.562,-2.234 z m -0.833,-0.708 -5.54,-5.051 -0.138,0.115 4.294,6.836 -0.036,-0.017 c -0.903,1.575 -1.421,3.4 -1.421,5.344 0,5.944 4.818,10.761 10.761,10.761 3.146,0 5.974,-1.347 7.942,-3.498 l -0.009,-0.029 5.506,5.032 0.137,-0.116 -4.266,-6.798 0.029,0 c 0.905,-1.577 1.424,-3.405 1.424,-5.352 0,-5.941 -4.82,-10.76 -10.763,-10.76 -3.138,0 -5.962,1.342 -7.929,3.486 l 0.009,0.047"
           id="path3093"
           style="fill:#004ea2;fill-opacity:1;fill-rule:nonzero;stroke:none" />
      </g>
    </g>
  </g>
</svg>
